<svg width="40" height="49" viewBox="0 0 40 49" fill="none" xmlns="http://www.w3.org/2000/svg">
<path d="M12.5942 18.3508H9.58276V27.3657H12.5942V18.3508Z" fill="#DE79F1"/>
<path d="M18.617 21.3558H21.6284V3.32602H18.617V15.3459H12.5942V18.3508H18.617V21.3558Z" fill="#DE79F1"/>
<path d="M30.6632 21.3558V18.3508H33.6746V15.3459H30.6632V3.32602H27.6519V21.3558H30.6632Z" fill="#DE79F1"/>
<path d="M33.6748 45.3964H15.6056V42.3914H12.5942V48.4013H36.6862V39.3864H33.6748V45.3964Z" fill="#DE79F1"/>
<path d="M36.6862 18.3508H33.6748V21.3558H36.6862V18.3508Z" fill="#DE79F1"/>
<path d="M9.58268 27.3657H6.57129V30.3707H9.58268V27.3657Z" fill="#DE79F1"/>
<path d="M3.55998 27.3657H0.548584V33.3757H3.55998V27.3657Z" fill="#DE79F1"/>
<path d="M39.6974 21.3558H36.686V39.3865H39.6974V21.3558Z" fill="#DE79F1"/>
<path d="M27.6512 0.32019H21.6284V3.32515H27.6512V0.32019Z" fill="#DE79F1"/>
<path d="M6.57144 24.3608H3.56006V27.3657H6.57144V24.3608Z" fill="#DE79F1"/>
<path d="M6.57144 33.3757H3.56006V36.3806H6.57144V33.3757Z" fill="#DE79F1"/>
<path d="M9.58268 36.3815H6.57129V39.3865H9.58268V36.3815Z" fill="#DE79F1"/>
<path d="M12.5942 39.3864H9.58276V42.3914H12.5942V39.3864Z" fill="#DE79F1"/>
</svg>
