<svg width="147" height="18" viewBox="0 0 147 18" fill="none" xmlns="http://www.w3.org/2000/svg">
<g clip-path="url(#clip0_929_758)">
<path d="M0.888672 15.6577V0H14.0721V2.24305H16.2622V8.95763H14.0721V11.1861H5.28317V15.6577H0.888672ZM5.28317 8.95763H11.8678V2.24305H5.28317V8.95763Z" fill="white"/>
<path d="M21.7591 15.6577V13.4292H19.5547V11.1861H21.7591V8.95762H30.5481V6.71458H21.7591V4.48608H32.7381V6.71458H34.9426V15.6577H21.7591ZM23.9492 13.4292H30.5481V11.1861H23.9492V13.4292Z" fill="white"/>
<path d="M38.2349 15.6577V4.48608H51.4184V6.71458H53.68V15.6577H49.2855V6.71458H47.0954V15.6577H42.7009V6.71458H40.4965V15.6577H38.2349Z" fill="white"/>
<path d="M56.9004 17.9007V4.48608H70.0838V6.71458H72.2883V11.1861H70.0838V13.4292H61.2949V17.9007H56.9004ZM61.2949 11.1861H67.8938V6.71458H61.2949V11.1861Z" fill="white"/>
<path d="M77.7708 15.6577V13.4292H75.5664V11.1861H77.7708V8.95762H86.6027V6.71458H77.8137V4.48608H88.8071V6.71458H90.897V15.6577H77.7708ZM79.9609 13.4292H86.6027V11.1861H80.0038L79.9609 13.4292Z" fill="white"/>
<path d="M96.4365 15.6577V13.4292H94.2464V11.1861H98.6409V13.4292H105.211V8.95763H96.4079V6.71459H94.2178V2.24305H96.4079V0H107.401V2.24305H109.606V4.4861H105.211V2.24305H98.6123V6.71459H107.401V8.95763H109.606V13.4292H107.401V15.6577H96.4365Z" fill="white"/>
<path d="M115.117 15.6577V13.4292H112.912V6.71458H115.117V4.48608H126.11V6.71458H128.3V11.1861H117.307V13.4292H126.11V15.6577H115.117ZM117.307 8.95762H123.905V6.71458H117.307V8.95762Z" fill="white"/>
<path d="M133.84 17.9007V15.6577H142.643V13.4292H133.84V11.1861H131.65V6.71458H133.84V4.48608H147.038V15.6577H144.833V17.9007H133.84ZM136.044 11.1861H142.643V6.71458H135.987L136.044 11.1861Z" fill="white"/>
</g>
<defs>
<clipPath id="clip0_929_758">
<rect width="146.092" height="17.8862" fill="white" transform="translate(0.888672)"/>
</clipPath>
</defs>
</svg>
