<svg width="40" height="40" viewBox="0 0 50 68" fill="none" xmlns="http://www.w3.org/2000/svg">
<g clip-path="url(#clip0_7_3)">
<mask id="mask0_7_3" style="mask-type:luminance" maskUnits="userSpaceOnUse" x="0" y="0" width="50" height="68">
<path d="M50 0H0V68H50V0Z" fill="white"/>
</mask>
<g mask="url(#mask0_7_3)">
<path d="M4.22375 0H0V60.8472H4.22375V0Z" fill="#DE79F1"/>
<path d="M8.44754 3.62537H4.22382V7.25072H8.44754V3.62537Z" fill="#DE79F1"/>
<path d="M12.5572 7.1527H8.33336V10.7781H12.5572V7.1527Z" fill="#DE79F1"/>
<path d="M16.7808 10.7781H12.557V14.4034H16.7808V10.7781Z" fill="#DE79F1"/>
<path d="M20.8904 14.3055H16.6666V17.9308H20.8904V14.3055Z" fill="#DE79F1"/>
<path d="M25.1142 17.9308H20.8904V21.5562H25.1142V17.9308Z" fill="#DE79F1"/>
<path d="M29.2237 21.4582H25V25.0836H29.2237V21.4582Z" fill="#DE79F1"/>
<path d="M33.4475 25.0836H29.2238V28.709H33.4475V25.0836Z" fill="#DE79F1"/>
<path d="M37.5572 28.6109H33.3334V32.2363H37.5572V28.6109Z" fill="#DE79F1"/>
<path d="M41.7808 32.2363H37.557V35.8617H41.7808V32.2363Z" fill="#DE79F1"/>
<path d="M45.8904 35.7637H41.6666V39.3891H45.8904V35.7637Z" fill="#DE79F1"/>
<path d="M50.1142 39.3891H45.8904V43.0144H50.1142V39.3891Z" fill="#DE79F1"/>
<path d="M50.1143 42.9165H29.2238V46.5418H50.1143V42.9165Z" fill="#DE79F1"/>
<path d="M33.4475 46.5418H29.2238V50.1671H33.4475V46.5418Z" fill="#DE79F1"/>
<path d="M20.8904 46.5418H16.6666V50.1671H20.8904V46.5418Z" fill="#DE79F1"/>
<path d="M25.1142 50.0692H20.8904V57.2219H25.1142V50.0692Z" fill="#DE79F1"/>
<path d="M29.2237 57.2219H25V64.3748H29.2237V57.2219Z" fill="#DE79F1"/>
<path d="M37.5572 64.3748H29.2238V68H37.5572V64.3748Z" fill="#DE79F1"/>
<path d="M37.5572 50.0692H33.3334V57.2219H37.5572V50.0692Z" fill="#DE79F1"/>
<path d="M41.7808 57.2219H37.557V64.3748H41.7808V57.2219Z" fill="#DE79F1"/>
<path d="M16.7808 50.0692H12.557V53.6945H16.7808V50.0692Z" fill="#DE79F1"/>
<path d="M12.5572 53.6945H8.33336V57.3199H12.5572V53.6945Z" fill="#DE79F1"/>
<path d="M8.44754 57.2219H4.22382V60.8472H8.44754V57.2219Z" fill="#DE79F1"/>
</g>
</g>
<defs>
<clipPath id="clip0_7_3">
<rect width="60" height="70" fill="white"/>
</clipPath>
</defs>
</svg>
