<svg width="257" height="99" viewBox="0 0 257 99" fill="none" xmlns="http://www.w3.org/2000/svg">
<g clip-path="url(#clip0_305_73007)">
<path d="M233.786 64.0205H222.24V75.5343H233.786V64.0205Z" fill="#DE79F1"/>
<path d="M233.813 87.0684V75.5613H245.359V64.0476H233.813V52.5405H257V87.0684H233.813Z" fill="#DE79F1"/>
<path d="M233.813 41.0264H222.267V52.5402H233.813V41.0264Z" fill="#DE79F1"/>
<path d="M222.267 29.5972H210.721V41.111H222.267V29.5972Z" fill="#DE79F1"/>
<path d="M66.8392 0H55.2932V11.5138H66.8392V0Z" fill="#DE79F1"/>
<path d="M65.9409 5.75849C65.9409 7.04825 65.4272 8.28518 64.5126 9.19717C63.5981 10.1092 62.3577 10.6215 61.0643 10.6215C59.7707 10.6215 58.5299 10.1093 57.6148 9.19738C56.6998 8.28548 56.1852 7.04856 56.1843 5.75849C56.1843 4.46784 56.6985 3.23005 57.6136 2.31742C58.5288 1.4048 59.7701 0.89209 61.0643 0.89209C62.358 0.892986 63.5984 1.40609 64.5128 2.31862C65.4273 3.23115 65.9409 4.46843 65.9409 5.75849Z" fill="white"/>
<path d="M232.888 46.7853C232.887 48.0745 232.373 49.3105 231.458 50.2218C230.544 51.1331 229.304 51.645 228.011 51.645C226.718 51.645 225.477 51.1327 224.562 50.2208C223.647 49.3089 223.132 48.072 223.131 46.7819C223.131 45.4913 223.645 44.2535 224.561 43.3409C225.476 42.4282 226.717 41.9155 228.011 41.9155C228.652 41.9155 229.286 42.0414 229.878 42.286C230.47 42.5306 231.008 42.8891 231.461 43.3411C231.914 43.793 232.273 44.3295 232.518 44.9199C232.763 45.5103 232.888 46.143 232.888 46.7819" fill="white"/>
<path d="M190.546 80H179V91.5138H190.546V80Z" fill="#DE79F1"/>
<path d="M189.651 85.758C189.651 87.0478 189.138 88.2847 188.223 89.1967C187.309 90.1087 186.068 90.621 184.775 90.621C184.134 90.6215 183.5 90.496 182.908 90.2518C182.315 90.0076 181.777 89.6495 181.324 89.1979C180.871 88.7463 180.512 88.21 180.266 87.6198C180.021 87.0296 179.895 86.3969 179.895 85.758C179.894 85.1188 180.02 84.4858 180.265 83.8952C180.51 83.3046 180.87 82.7679 181.323 82.3159C181.776 81.864 182.314 81.5055 182.907 81.2611C183.499 81.0167 184.134 80.8912 184.775 80.8916C186.068 80.8925 187.309 81.4056 188.223 82.3181C189.138 83.2307 189.651 84.4679 189.651 85.758Z" fill="white"/>
</g>
<defs>
<clipPath id="clip0_305_73007">
<rect width="257" height="98.5819" fill="white"/>
</clipPath>
</defs>
</svg>
