<svg width="40" height="40" viewBox="0 0 40 40" fill="none" xmlns="http://www.w3.org/2000/svg">
<circle cx="20" cy="20" r="19.75" stroke="white" stroke-width="0.5"/>
<g clip-path="url(#clip0_1160_62)">
<path d="M8.74984 19.3989C8.7653 19.3833 8.77869 19.3658 8.78965 19.3468C8.98084 18.8957 9.24259 18.7195 9.72568 18.7195C15.9626 18.7195 22.1992 18.7195 28.4353 18.7195H28.7598C28.676 18.6311 28.6241 18.5742 28.5698 18.5197C27.594 17.5449 26.6184 16.57 25.6429 15.5948C25.1104 15.0589 25.3088 14.2216 26.0126 14.0333C26.3709 13.937 26.6761 14.0533 26.9348 14.3142C27.8073 15.1897 28.682 16.0632 29.5589 16.9346C30.2255 17.6006 30.8914 18.2667 31.5564 18.9327C31.9786 19.3565 31.9822 19.8881 31.5564 20.3131C30.0173 21.8546 28.4767 23.3947 26.9348 24.9333C26.6616 25.2064 26.3455 25.3202 25.9698 25.201C25.6079 25.0847 25.3975 24.8231 25.3432 24.4466C25.2961 24.1226 25.4282 23.8623 25.655 23.6371C26.6224 22.6748 27.5886 21.7113 28.5535 20.7466C28.616 20.6934 28.6825 20.6452 28.7526 20.6025L28.7146 20.5299H28.457C22.2651 20.5299 16.0732 20.5323 9.88128 20.5371C9.33426 20.5371 8.95309 20.3658 8.74683 19.8499L8.74984 19.3989Z" fill="white"/>
</g>
<defs>
<clipPath id="clip0_1160_62">
<rect width="23.125" height="11.25" fill="white" transform="translate(8.75 14)"/>
</clipPath>
</defs>
</svg>
