<svg width="40" height="40" viewBox="0 0 40 40" fill="none" xmlns="http://www.w3.org/2000/svg">
<circle cx="20" cy="20" r="19.75" transform="matrix(-1 0 0 1 40 0)" stroke="white" stroke-width="0.5"/>
<path d="M31.8749 19.3991C31.8595 19.3835 31.8461 19.366 31.8351 19.347C31.6439 18.896 31.3822 18.7198 30.8991 18.7198C24.6621 18.7198 18.4256 18.7198 12.1894 18.7198H11.865C11.9488 18.6314 12.0007 18.5745 12.0549 18.52C13.0308 17.5452 14.0064 16.5702 14.9818 15.595C15.5144 15.0592 15.316 14.2218 14.6121 14.0335C14.2539 13.9373 13.9487 14.0535 13.69 14.3145C12.8175 15.19 11.9428 16.0634 11.0658 16.9349C10.3992 17.6009 9.73338 18.2669 9.06835 18.9329C8.64617 19.3567 8.64255 19.8883 9.06835 20.3133C10.6075 21.8548 12.148 23.3949 13.69 24.9336C13.9632 25.2066 14.2792 25.3205 14.6549 25.2012C15.0168 25.085 15.2273 24.8234 15.2816 24.4468C15.3286 24.1229 15.1965 23.8625 14.9698 23.6373C14.0024 22.675 13.0362 21.7115 12.0712 20.7468C12.0088 20.6936 11.9422 20.6454 11.8722 20.6028L11.9102 20.5301H12.1677C18.3596 20.5301 24.5516 20.5325 30.7435 20.5374C31.2905 20.5374 31.6717 20.366 31.8779 19.8502L31.8749 19.3991Z" fill="white"/>
</svg>
