<svg width="194" height="130" viewBox="0 0 194 130" fill="none" xmlns="http://www.w3.org/2000/svg">
<g clip-path="url(#clip0_214_1684)">
<path d="M144.973 0.135061C144.973 1.80268 145.001 3.39578 144.973 4.97024C144.973 5.73417 145.247 6.009 145.992 5.98571C147.268 5.9531 148.549 6.01366 149.825 5.95776C150.695 5.9205 150.956 6.25124 150.952 7.10835C150.93 15.3253 150.93 23.5423 150.952 31.7593C150.952 32.8307 150.56 33.0403 149.587 33.0356C140.479 33.003 131.371 33.0357 122.263 33.0077C120.745 33.0077 120.741 33.0077 120.731 34.5495C120.731 35.8259 120.787 37.1116 120.731 38.3833C120.68 39.3149 121.02 39.5804 121.933 39.5757C127.162 39.5385 132.396 39.5757 137.63 39.5338C138.687 39.5338 139.101 39.8133 139.026 40.8894C138.95 41.894 138.95 42.9031 139.026 43.9078C139.12 45.0118 138.766 45.3705 137.63 45.3612C130.617 45.3146 123.6 45.3379 116.587 45.3379C114.795 45.3379 114.79 45.3379 114.79 47.0753C114.79 50.1358 114.822 53.2009 114.79 56.2613C114.79 57.1929 115.097 57.4584 116.005 57.4444C119.297 57.4025 122.594 57.4444 125.886 57.4118C126.817 57.4118 127.176 57.6448 127.157 58.6416C127.101 61.9023 127.106 65.163 127.157 68.4237C127.157 69.3554 126.892 69.6535 125.97 69.6022C124.692 69.53 123.411 69.53 122.133 69.6022C121.202 69.6535 120.932 69.2668 120.96 68.3911C121.006 66.7281 120.96 65.0699 120.96 63.2345C119.018 63.2345 117.207 63.1973 115.409 63.2858C115.186 63.2858 114.827 64.0078 114.822 64.3991C114.771 67.194 114.795 69.9889 114.795 72.7838C114.795 76.3147 114.795 79.8409 114.795 83.3671C114.795 84.2242 114.557 84.5456 113.677 84.4944C112.48 84.4339 111.274 84.5316 110.073 84.4664C109.142 84.4152 108.788 84.6947 108.816 85.6915C108.89 88.0206 108.816 90.3497 108.858 92.6788C108.858 93.5219 108.615 93.8806 107.735 93.8433C106.455 93.7921 105.174 93.8433 103.899 93.8433C103.14 93.8154 102.865 94.0902 102.883 94.8495C102.925 96.4333 102.883 98.0217 102.883 99.8198H98.0873C96.5088 99.8198 96.5088 99.8197 96.5088 101.422C96.5088 108.554 96.5088 115.685 96.4855 122.822C96.4855 123.926 96.7696 124.345 97.9104 124.261C99.2235 124.173 100.546 124.261 101.864 124.233C102.59 124.233 102.921 124.443 102.888 125.23C102.842 126.506 102.86 127.787 102.888 129.064C102.888 129.665 102.758 129.995 102.064 129.995C98.5375 129.995 95.011 129.995 91.4845 129.995C90.6091 129.995 90.7488 129.38 90.7488 128.859C90.7488 124.443 90.7488 120.024 90.7488 115.602C90.7488 114.633 90.7162 113.664 90.7488 112.695C90.7768 111.936 90.4648 111.67 89.7198 111.693C88.402 111.735 87.0842 111.693 85.7665 111.693C85.0261 111.693 84.7188 111.479 84.7514 110.701C84.8026 109.346 84.7514 107.986 84.7514 106.63C84.7514 105.992 84.5791 105.698 83.9039 105.726C82.4278 105.754 80.9564 105.726 79.485 105.726C78.8238 105.726 78.6049 106.029 78.6189 106.658C78.6468 107.897 78.5537 109.145 78.6515 110.384C78.7446 111.507 78.3069 111.782 77.2545 111.721C76.0578 111.642 74.8518 111.721 73.6552 111.693C72.8868 111.665 72.6261 111.982 72.6447 112.718C72.6727 113.999 72.6028 115.28 72.6447 116.557C72.6866 117.446 72.3327 117.712 71.4946 117.684C70.1396 117.633 68.7799 117.684 67.4249 117.651C66.61 117.623 66.2235 117.838 66.2654 118.76C66.3376 120.192 66.3376 121.627 66.2654 123.059C66.2189 123.991 66.5914 124.275 67.4807 124.238C68.8358 124.182 70.1954 124.27 71.5504 124.21C72.4352 124.173 72.7052 124.517 72.668 125.36C72.6121 126.562 72.6261 127.764 72.668 128.966C72.668 129.688 72.4678 130.019 71.6808 130.009C68.2723 129.977 64.8592 129.967 61.4367 130.009C60.3797 130.009 60.5055 129.371 60.5055 128.7C60.5055 121.763 60.5055 114.824 60.5055 107.883C60.5055 107.035 60.4123 106.178 60.4775 105.33C60.5427 104.483 60.2726 103.98 59.332 104.007L59.1411 102.871L57.7442 102.661C57.6116 102.031 57.4421 101.409 57.2366 100.798C57.1016 100.472 56.6965 99.9548 56.5335 99.9967C55.6022 100.23 54.7781 99.6102 53.8375 99.7592C52.7957 99.8587 51.7474 99.8696 50.7037 99.7918C48.3476 99.7592 48.6595 100.136 48.627 97.677C48.627 96.7081 48.5897 95.7392 48.627 94.7703C48.6502 94.0669 48.3708 93.7968 47.6957 93.8154C46.2987 93.8433 44.9018 93.7688 43.5049 93.8387C42.5736 93.8852 42.1778 93.6011 42.229 92.6089C42.2989 91.2114 42.229 89.814 42.257 88.4165C42.257 87.7178 42.0102 87.4384 41.3257 87.457C40.0452 87.4896 38.7647 87.4011 37.4888 87.457C36.5575 87.5082 36.2828 87.1309 36.3201 86.2505C36.3759 84.9742 36.3201 83.6932 36.3201 82.4122C36.3201 81.7134 36.0593 81.4386 35.3608 81.4805C34.1222 81.5131 32.879 81.434 31.6357 81.5132C30.6206 81.5784 30.3086 81.2523 30.3133 80.2135C30.3505 71.8801 30.3133 63.5466 30.3133 55.2085C30.3133 52.381 30.3459 49.5488 30.3133 46.7213C30.3133 45.7897 30.6253 45.4963 31.5193 45.5382C32.6796 45.5964 33.842 45.5964 35.0023 45.5382C35.8637 45.4963 36.1478 45.7897 36.1385 46.6608C36.0919 49.8423 36.1384 53.0192 36.1012 56.2007C36.1012 57.1324 36.3759 57.519 37.3491 57.4631C38.5877 57.3979 39.831 57.463 41.0742 57.4351C41.8053 57.4351 42.1266 57.6447 42.094 58.4319C42.0428 59.7083 42.1313 60.9893 42.0707 62.2656C42.0288 63.1507 42.3734 63.4209 43.2162 63.3929C44.6131 63.3463 46.0101 63.3929 47.407 63.3929C48.1986 63.3929 48.5199 63.6165 48.4873 64.4503C48.4267 65.8804 48.4873 67.3197 48.4547 68.7498C48.4547 69.4765 48.6409 69.8025 49.4278 69.7932C52.841 69.7932 56.2495 69.7932 59.6719 69.7932C60.3145 69.7932 60.5706 69.537 60.5567 68.8942C60.5287 67.4968 60.5893 66.0993 60.5241 64.7019C60.4775 63.7143 60.7615 63.2765 61.8279 63.365C62.8942 63.4535 64.0024 63.2998 65.0873 63.4022C66.3306 63.528 66.61 62.983 66.5495 61.8697C66.475 60.4722 66.5495 59.0236 66.5495 57.4584H73.8554C76.3046 57.4584 75.8623 57.5702 75.8995 55.4041C75.8995 54.4352 75.9321 53.4664 75.8995 52.4975C75.8669 51.7428 76.165 51.468 76.9146 51.4773C78.9728 51.51 81.0262 51.4773 83.0797 51.4773C84.7979 51.4773 84.8026 51.4773 84.8119 49.8097C84.8119 48.6871 84.8399 47.5645 84.8119 46.4418C84.8119 45.7897 85.0494 45.5102 85.692 45.5475C86.8933 45.5475 88.0993 45.4823 89.296 45.5475C90.4927 45.6127 90.8326 45.282 90.8187 44.0709C90.7581 37.9454 90.7907 31.8199 90.7907 25.6944C90.7907 19.5689 90.8187 13.4434 90.7675 7.3226C90.7675 6.23725 91.0981 5.88789 92.1644 5.9531C93.3192 6.02763 94.4926 5.92515 95.6474 5.9531C96.5321 5.99037 96.7835 5.62239 96.7463 4.77926C96.6857 3.50293 96.7463 2.22191 96.7463 0.940914C96.7463 0.279455 96.9651 -0.0326219 97.6776 -0.0279638C113.258 -0.00933112 128.838 -0.0015732 144.419 -0.00467864C144.606 0.0300203 144.791 0.0766918 144.973 0.135061ZM108.997 12.1019C108.997 11.2867 108.997 10.4762 108.997 9.66567C108.997 9.02285 108.737 8.77596 108.094 8.78994C106.627 8.78994 105.16 8.81788 103.694 8.78994C103.074 8.78994 102.879 9.02751 102.883 9.60978C102.883 11.2308 102.883 12.8705 102.883 14.4729C102.883 15.125 103.13 15.3672 103.773 15.3533C105.17 15.3533 106.567 15.3113 107.964 15.3533C108.862 15.3905 109.109 15.0039 109.044 14.1794C108.955 13.4714 108.997 12.7727 108.997 12.1019Z" fill="#D4B03A"/>
<path d="M151.361 108.689H110.576C109.146 108.689 108.439 107.562 109.067 106.276C109.144 106.177 109.24 106.095 109.35 106.034C109.46 105.973 109.58 105.935 109.705 105.922C110.207 105.886 110.711 105.878 111.214 105.899H192.217C193.735 105.899 194.382 106.83 193.8 108.228C193.735 108.333 193.648 108.424 193.545 108.493C193.442 108.562 193.326 108.608 193.204 108.628C192.74 108.675 192.273 108.689 191.807 108.67H151.366L151.361 108.689Z" fill="#D4B03A"/>
<path d="M24.325 108.684C16.7288 108.684 9.13419 108.684 1.54114 108.684C1.25829 108.673 0.983364 108.588 0.744203 108.436C0.505043 108.285 0.310152 108.073 0.179233 107.822C0.0483142 107.571 -0.0139819 107.289 -0.00132224 107.006C0.0113374 106.724 0.0984862 106.449 0.251307 106.211C0.435159 106.029 0.682082 105.926 0.940447 105.922C1.47593 105.875 2.02076 105.922 2.56556 105.922C17.3667 105.922 32.1695 105.922 46.9737 105.922C47.4394 105.922 48.2729 106.006 48.3194 106.197C48.4638 106.912 48.4638 107.648 48.3194 108.363C48.2868 108.535 47.5977 108.68 47.2066 108.68C43.6071 108.707 40.0031 108.68 36.399 108.68L24.325 108.684Z" fill="#D4B03A"/>
<path d="M18.444 117.8H25.1492C26.4297 117.8 27.7102 117.856 28.9814 117.8C29.9127 117.744 30.2433 118.145 30.1641 119.011C30.1618 119.05 30.1618 119.089 30.1641 119.128C30.1641 121.033 30.1641 121.033 28.3016 121.033H20.0551C18.4486 121.033 18.4486 121.033 18.444 119.375C18.4393 118.9 18.444 118.438 18.444 117.8Z" fill="#D4B03A"/>
<path d="M151.212 129.953C149.545 129.953 147.878 129.907 146.216 129.953C145.285 129.995 145.066 129.548 145.163 128.766C145.247 128.09 144.777 127.131 146.137 127.14C149.551 127.177 152.966 127.177 156.381 127.14C157.55 127.14 157.312 127.913 157.312 128.565C157.312 129.217 157.484 129.995 156.339 129.963C154.625 129.921 152.916 129.953 151.212 129.953Z" fill="#D4B03A"/>
<path d="M6.02063 127.182C7.64572 127.182 9.28013 127.228 10.8912 127.182C12.2369 127.135 11.8225 128.085 11.897 128.78C11.9762 129.548 11.7992 130.005 10.8493 129.991C7.67831 129.949 4.5073 129.925 1.33628 129.991C0.0278336 130.023 0.190809 129.264 0.144245 128.43C0.0930245 127.499 0.386361 127.112 1.37818 127.159C2.9241 127.238 4.4747 127.182 6.02063 127.182Z" fill="#D4B03A"/>
<path d="M170.751 117.637H167.272C165.987 117.637 166.49 116.668 166.411 116.04C166.332 115.411 166.369 114.81 167.314 114.828C169.596 114.875 171.873 114.889 174.154 114.856C175.584 114.856 175.058 115.863 175.151 116.566C175.253 117.348 174.941 117.698 174.112 117.656C172.99 117.605 171.868 117.656 170.751 117.656V117.637Z" fill="#D4B03A"/>
<path d="M45.3254 127.186H46.9365C48.4638 127.186 48.4126 127.186 48.4685 128.71C48.5057 129.641 48.2403 130.042 47.2485 129.986C45.9347 129.918 44.6183 129.918 43.3045 129.986C42.1404 130.042 42.2382 129.311 42.2242 128.542C42.2103 127.773 42.2242 127.051 43.3418 127.173C44.0023 127.212 44.6644 127.217 45.3254 127.186Z" fill="#D4B03A"/>
<path d="M127.134 126.982H125.402C123.87 126.982 123.833 126.982 123.898 125.496C123.898 125.067 124.173 124.312 124.364 124.294C125.216 124.21 126.287 124.075 126.887 124.503C127.311 124.792 127.069 125.989 127.134 126.982Z" fill="#D4B03A"/>
</g>
<defs>
<clipPath id="clip0_214_1684">
<rect width="194" height="130" fill="white"/>
</clipPath>
</defs>
</svg>
