<svg width="758" height="292" viewBox="0 0 758 292" fill="none" xmlns="http://www.w3.org/2000/svg">
<g clip-path="url(#clip0_206_1431)">
<path d="M689.86 189.44H655.79V223.51H689.86V189.44Z" fill="#DE79F1"/>
<path d="M689.94 257.64V223.59H724.01V189.52H689.94V155.47H758.36V257.64H689.94Z" fill="#DE79F1"/>
<path d="M689.94 121.4H655.87V155.47H689.94V121.4Z" fill="#DE79F1"/>
<path d="M655.87 87.58H621.8V121.65H655.87V87.58Z" fill="#DE79F1"/>
<path d="M34.07 257.64H0V291.71H34.07V257.64Z" fill="#DE79F1"/>
<path d="M197.23 0H163.16V34.07H197.23V0Z" fill="#DE79F1"/>
<path d="M194.58 17.04C194.58 20.8565 193.064 24.5166 190.365 27.2153C187.667 29.9139 184.007 31.43 180.19 31.43C176.373 31.43 172.711 29.9142 170.011 27.2159C167.311 24.5175 165.793 20.8574 165.79 17.04C165.79 13.2209 167.307 9.55819 170.008 6.85767C172.708 4.15714 176.371 2.64001 180.19 2.64001C184.007 2.64267 187.668 4.16097 190.366 6.86121C193.064 9.56144 194.58 13.2226 194.58 17.04Z" fill="white"/>
<path d="M31.4299 274.68C31.4299 278.497 29.9138 282.157 27.2152 284.855C24.5165 287.554 20.8564 289.07 17.0399 289.07C15.1493 289.071 13.277 288.7 11.53 287.978C9.78299 287.255 8.19547 286.195 6.85817 284.859C5.52088 283.522 4.46002 281.936 3.73622 280.189C3.01243 278.443 2.6399 276.571 2.6399 274.68C2.63858 272.789 3.01015 270.916 3.73336 269.168C4.45656 267.42 5.51721 265.832 6.85463 264.495C8.19206 263.157 9.78002 262.097 11.5277 261.373C13.2754 260.65 15.1485 260.279 17.0399 260.28C20.8573 260.283 24.5174 261.801 27.2158 264.501C29.9141 267.201 31.4299 270.863 31.4299 274.68Z" fill="white"/>
<path d="M687.21 138.44C687.207 142.255 685.69 145.912 682.992 148.609C680.293 151.305 676.635 152.82 672.82 152.82C669.002 152.82 665.341 151.304 662.641 148.606C659.941 145.908 658.423 142.247 658.42 138.43C658.42 134.611 659.937 130.948 662.638 128.248C665.338 125.547 669.001 124.03 672.82 124.03C674.71 124.03 676.583 124.403 678.329 125.126C680.076 125.85 681.662 126.911 682.999 128.248C684.335 129.586 685.395 131.173 686.117 132.92C686.84 134.667 687.211 136.539 687.21 138.43" fill="white"/>
</g>
<defs>
<clipPath id="clip0_206_1431">
<rect width="758.36" height="291.71" fill="white"/>
</clipPath>
</defs>
</svg>
