<svg width="257" height="137" viewBox="0 0 257 137" fill="none" xmlns="http://www.w3.org/2000/svg">
<g clip-path="url(#clip0_305_73006)">
<path d="M233.786 64.0203H222.24V75.534H233.786V64.0203Z" fill="#DE79F1"/>
<path d="M233.813 87.0681V75.5611H245.359V64.0473H233.813V52.5403H257V87.0681H233.813Z" fill="#DE79F1"/>
<path d="M233.813 41.0266H222.267V52.5404H233.813V41.0266Z" fill="#DE79F1"/>
<path d="M222.267 29.5972H210.721V41.111H222.267V29.5972Z" fill="#DE79F1"/>
<path d="M66.8392 0H55.2932V11.5138H66.8392V0Z" fill="#DE79F1"/>
<path d="M65.9409 5.75849C65.9409 7.04825 65.4272 8.28518 64.5126 9.19717C63.5981 10.1092 62.3577 10.6215 61.0643 10.6215C59.7707 10.6215 58.5299 10.1093 57.6148 9.19738C56.6998 8.28548 56.1852 7.04856 56.1843 5.75849C56.1843 4.46784 56.6985 3.23005 57.6136 2.31742C58.5288 1.4048 59.7701 0.89209 61.0643 0.89209C62.358 0.892986 63.5984 1.40609 64.5128 2.31862C65.4273 3.23115 65.9409 4.46843 65.9409 5.75849Z" fill="white"/>
<path d="M232.888 46.7851C232.887 48.0742 232.373 49.3103 231.458 50.2216C230.544 51.1328 229.304 51.6447 228.011 51.6447C226.718 51.6447 225.477 51.1325 224.562 50.2206C223.647 49.3087 223.132 48.0718 223.131 46.7817C223.131 45.491 223.645 44.2532 224.561 43.3406C225.476 42.428 226.717 41.9153 228.011 41.9153C228.652 41.9153 229.286 42.0412 229.878 42.2858C230.47 42.5304 231.008 42.8889 231.461 43.3408C231.914 43.7928 232.273 44.3292 232.518 44.9196C232.763 45.51 232.888 46.1428 232.888 46.7817" fill="white"/>
<path d="M190.546 80H179V91.5138H190.546V80Z" fill="#DE79F1"/>
<path d="M189.651 85.7583C189.651 87.048 189.138 88.2849 188.223 89.1969C187.309 90.1089 186.068 90.6213 184.775 90.6213C184.134 90.6217 183.5 90.4963 182.908 90.2521C182.315 90.0079 181.777 89.6497 181.324 89.1981C180.871 88.7465 180.512 88.2103 180.266 87.62C180.021 87.0298 179.895 86.3972 179.895 85.7583C179.894 85.1191 180.02 84.4861 180.265 83.8954C180.51 83.3048 180.87 82.7682 181.323 82.3162C181.776 81.8642 182.314 81.5058 182.907 81.2614C183.499 81.017 184.134 80.8914 184.775 80.8918C186.068 80.8927 187.309 81.4058 188.223 82.3184C189.138 83.2309 189.651 84.4682 189.651 85.7583Z" fill="white"/>
</g>
<defs>
<clipPath id="clip0_305_73006">
<rect width="257" height="98.5819" fill="white"/>
</clipPath>
</defs>
</svg>
