<svg width="103" height="13" viewBox="0 0 103 13" fill="none" xmlns="http://www.w3.org/2000/svg">
<g clip-path="url(#clip0_206_1315)">
<path d="M0 10.75V0H9.20999V1.54H10.74V6.14999H9.20999V7.68H3.07001V10.75H0ZM3.07001 6.14999H7.67001V1.54H3.07001V6.14999Z" fill="white"/>
<path d="M14.58 10.75V9.21996H13.04V7.67996H14.58V6.14996H20.72V4.60996H14.58V3.07996H22.25V4.60996H23.79V10.75H14.58ZM16.11 9.21996H20.72V7.67996H16.11V9.21996Z" fill="white"/>
<path d="M26.0901 10.75V3.07996H35.3001V4.60996H36.8801V10.75H33.8101V4.60996H32.2801V10.75H29.2101V4.60996H27.6701V10.75H26.0901Z" fill="white"/>
<path d="M39.1299 12.29V3.07996H48.3399V4.60996H49.8799V7.67996H48.3399V9.21996H42.1999V12.29H39.1299ZM42.1999 7.67996H46.8099V4.60996H42.1999V7.67996Z" fill="white"/>
<path d="M53.7099 10.75V9.21996H52.1699V7.67996H53.7099V6.14996H59.8799V4.60996H53.7399V3.07996H61.4199V4.60996H62.8799V10.75H53.7099ZM55.2399 9.21996H59.8799V7.67996H55.2699L55.2399 9.21996Z" fill="white"/>
<path d="M66.7499 10.75V9.21999H65.2199V7.68H68.2899V9.21999H72.8799V6.14999H66.7299V4.61H65.2V1.54H66.7299V0H74.4099V1.54H75.95V3.07999H72.8799V1.54H68.27V4.61H74.4099V6.14999H75.95V9.21999H74.4099V10.75H66.7499Z" fill="white"/>
<path d="M79.8 10.75V9.21996H78.26V4.60996H79.8V3.07996H87.48V4.60996H89.01V7.67996H81.33V9.21996H87.48V10.75H79.8ZM81.33 6.14996H85.94V4.60996H81.33V6.14996Z" fill="white"/>
<path d="M92.8801 12.29V10.75H99.0301V9.21996H92.8801V7.67996H91.3501V4.60996H92.8801V3.07996H102.1V10.75H100.56V12.29H92.8801ZM94.4201 7.67996H99.0301V4.60996H94.3801L94.4201 7.67996Z" fill="white"/>
</g>
<defs>
<clipPath id="clip0_206_1315">
<rect width="102.06" height="12.28" fill="white"/>
</clipPath>
</defs>
</svg>
