<svg width="1462" height="592" viewBox="0 0 1462 592" fill="none" xmlns="http://www.w3.org/2000/svg">
<g clip-path="url(#clip0_547_7834)">
<path d="M1429.93 47.6802H1413.99V31.7962H1429.93V47.6802Z" fill="#D4B03A"/>
<path d="M1429.97 15.8837V31.7584H1445.92V47.6424H1429.97V63.5171H1462V15.8837H1429.97Z" fill="#D4B03A"/>
<path d="M1429.97 79.4014H1414.02V63.5174H1429.97V79.4014Z" fill="#D4B03A"/>
<path d="M1414.02 95.1689H1398.07V79.2849H1414.02V95.1689Z" fill="#D4B03A"/>
<path d="M1335.95 31.8838H1320V15.9998H1335.95V31.8838Z" fill="#D4B03A"/>
<path d="M1221.95 87.8838H1206V71.9998H1221.95V87.8838Z" fill="#D4B03A"/>
<path d="M1220.71 79.9398C1220.71 78.1605 1220 76.4541 1218.74 75.1959C1217.47 73.9378 1215.76 73.231 1213.97 73.231C1212.19 73.231 1210.47 73.9376 1209.21 75.1956C1207.94 76.4537 1207.23 78.1601 1207.23 79.9398C1207.23 81.7203 1207.94 83.428 1209.21 84.687C1210.47 85.946 1212.18 86.6533 1213.97 86.6533C1215.76 86.6521 1217.47 85.9442 1218.74 84.6853C1220 83.4264 1220.71 81.7195 1220.71 79.9398Z" fill="white"/>
<path d="M1334.71 23.9398C1334.71 22.1605 1334 20.4541 1332.74 19.1959C1331.48 17.9378 1329.76 17.2309 1327.98 17.2309C1327.09 17.2303 1326.22 17.4034 1325.4 17.7403C1324.58 18.0772 1323.84 18.5712 1323.21 19.1943C1322.58 19.8173 1322.09 20.5571 1321.75 21.3714C1321.41 22.1856 1321.24 23.0584 1321.24 23.9398C1321.24 24.8216 1321.41 25.6949 1321.75 26.5097C1322.09 27.3245 1322.58 28.0648 1323.21 28.6883C1323.83 29.3119 1324.58 29.8064 1325.4 30.1435C1326.21 30.4807 1327.09 30.6539 1327.98 30.6533C1329.76 30.6521 1331.48 29.9442 1332.74 28.6853C1334 27.4264 1334.71 25.7195 1334.71 23.9398Z" fill="white"/>
<path d="M1428.69 71.4571C1428.69 69.6786 1427.98 67.9734 1426.72 66.7163C1425.46 65.4591 1423.74 64.7529 1421.96 64.7529C1420.17 64.7529 1418.46 65.4596 1417.19 66.7176C1415.93 67.9756 1415.22 69.6821 1415.22 71.4618C1415.22 73.2423 1415.93 74.9499 1417.19 76.209C1418.46 77.468 1420.17 78.1753 1421.96 78.1753C1422.84 78.1753 1423.72 78.0016 1424.54 77.6642C1425.35 77.3267 1426.1 76.8321 1426.72 76.2087C1427.35 75.5852 1427.84 74.8451 1428.18 74.0306C1428.52 73.2161 1428.69 72.3432 1428.69 71.4618" fill="white"/>
</g>
<g clip-path="url(#clip1_547_7834)">
<path d="M48.1734 284.56L48.149 299.722L32.2651 299.697L32.2895 284.535L48.1734 284.56Z" fill="#DE79F1"/>
<path d="M16.3776 284.474L32.2522 284.499L32.2766 269.337L48.1606 269.363L48.1362 284.525L64.0109 284.55L64.0598 254.102L16.4265 254.025L16.3776 284.474Z" fill="#DE79F1"/>
<path d="M79.8949 284.576L79.8705 299.738L63.9865 299.712L64.0109 284.55L79.8949 284.576Z" fill="#DE79F1"/>
<path d="M95.6379 299.763L95.6135 314.925L79.7296 314.899L79.7539 299.737L95.6379 299.763Z" fill="#DE79F1"/>
<path d="M32.2339 373.884L32.2095 389.045L16.3255 389.02L16.3499 373.858L32.2339 373.884Z" fill="#DE79F1"/>
<path d="M88.0595 482.349L88.0352 497.511L72.1512 497.486L72.1756 482.324L88.0595 482.349Z" fill="#DE79F1"/>
<path d="M80.1135 483.516C78.3342 483.513 76.6267 484.185 75.3666 485.384C74.1065 486.583 73.3971 488.211 73.3944 489.909C73.3916 491.608 74.0957 493.238 75.3518 494.442C76.6078 495.646 78.3132 496.324 80.0929 496.328C81.8734 496.331 83.5821 495.659 84.8431 494.459C86.104 493.259 86.814 491.63 86.8167 489.931C86.8182 488.232 86.113 486.602 84.856 485.399C83.599 484.196 81.8932 483.519 80.1135 483.516Z" fill="white"/>
<path d="M24.2876 375.046C22.5083 375.043 20.8008 375.715 19.5407 376.914C18.2806 378.113 17.5711 379.74 17.5684 381.439C17.5665 382.28 17.7382 383.114 18.0738 383.892C18.4094 384.67 18.9024 385.377 19.5245 385.973C20.1465 386.569 20.8856 387.042 21.6993 387.366C22.513 387.689 23.3855 387.856 24.267 387.858C25.1488 387.86 26.0223 387.696 26.8376 387.375C27.6529 387.055 28.394 386.584 29.0185 385.99C29.643 385.396 30.1386 384.69 30.477 383.913C30.8155 383.135 30.99 382.302 30.9908 381.46C30.9923 379.762 30.287 378.132 29.0301 376.929C27.7731 375.726 26.0673 375.049 24.2876 375.046Z" fill="white"/>
<path d="M71.9486 285.778C70.1701 285.776 68.4638 286.449 67.2047 287.648C65.9456 288.847 65.2368 290.474 65.2341 292.171C65.2313 293.87 65.9354 295.5 67.1915 296.704C68.4476 297.908 70.1529 298.586 71.9326 298.59C73.7131 298.593 75.4218 297.921 76.6828 296.721C77.9438 295.521 78.6537 293.892 78.6564 292.193C78.6578 291.351 78.4854 290.518 78.1492 289.74C77.813 288.963 77.3196 288.256 76.6971 287.66C76.0746 287.064 75.3352 286.591 74.5212 286.268C73.7073 285.946 72.8346 285.779 71.9532 285.778" fill="white"/>
</g>
<defs>
<clipPath id="clip0_547_7834">
<rect width="355" height="136" fill="white" transform="matrix(1 0 0 -1 1107 136)"/>
</clipPath>
<clipPath id="clip1_547_7834">
<rect width="337.486" height="136" fill="white" transform="matrix(0.00160796 -0.999999 -0.999999 -0.00160796 136 591.704)"/>
</clipPath>
</defs>
</svg>
