                <svg width="141" height="18"
                    viewBox="0 0 141 18" fill="none" xmlns="http://www.w3.org/2000/svg">
                    <g clip-path="url(#clip0_684_758)">
                        <path
                            d="M0 15.6577V0H12.724V2.24305H14.8377V8.95763H12.724V11.1861H4.24134V15.6577H0ZM4.24134 8.95763H10.5964V2.24305H4.24134V8.95763Z"
                            fill="white" />
                        <path
                            d="M20.143 15.6577V13.4292H18.0154V11.1861H20.143V8.95762H28.6256V6.71458H20.143V4.48608H30.7394V6.71458H32.8669V15.6577H20.143ZM22.2567 13.4292H28.6256V11.1861H22.2567V13.4292Z"
                            fill="white" />
                        <path
                            d="M36.0444 15.6577V4.48608H48.7685V6.71458H50.9513V15.6577H46.7099V6.71458H44.5962V15.6577H40.3548V6.71458H38.2273V15.6577H36.0444Z"
                            fill="white" />
                        <path
                            d="M54.0596 17.9007V4.48608H66.7835V6.71458H68.9111V11.1861H66.7835V13.4292H58.3009V17.9007H54.0596ZM58.3009 11.1861H64.6698V6.71458H58.3009V11.1861Z"
                            fill="white" />
                        <path
                            d="M74.2025 15.6577V13.4292H72.075V11.1861H74.2025V8.95762H82.7266V6.71458H74.2439V4.48608H84.8542V6.71458H86.8712V15.6577H74.2025ZM76.3162 13.4292H82.7266V11.1861H76.3577L76.3162 13.4292Z"
                            fill="white" />
                        <path
                            d="M92.2178 15.6577V13.4292H90.104V11.1861H94.3454V13.4292H100.687V8.95763H92.1902V6.71459H90.0764V2.24305H92.1902V0H102.8V2.24305H104.928V4.4861H100.687V2.24305H94.3178V6.71459H102.8V8.95763H104.928V13.4292H102.8V15.6577H92.2178Z"
                            fill="white" />
                        <path
                            d="M110.247 15.6577V13.4292H108.119V6.71458H110.247V4.48608H120.857V6.71458H122.971V11.1861H112.361V13.4292H120.857V15.6577H110.247ZM112.361 8.95762H118.73V6.71458H112.361V8.95762Z"
                            fill="white" />
                        <path
                            d="M128.317 17.9007V15.6577H136.814V13.4292H128.317V11.1861H126.204V6.71458H128.317V4.48608H141.055V15.6577H138.928V17.9007H128.317ZM130.445 11.1861H136.814V6.71458H130.39L130.445 11.1861Z"
                            fill="white" />
                    </g>
                    <defs>
                        <clipPath id="clip0_684_758">
                            <rect width="141" height="17.8862" fill="white" />
                        </clipPath>
                    </defs>
                </svg>